<?xml version="1.0" standalone="no"?>
<!DOCTYPE svg PUBLIC "-//W3C//DTD SVG 20010904//EN"
 "http://www.w3.org/TR/2001/REC-SVG-20010904/DTD/svg10.dtd">
<svg version="1.0" xmlns="http://www.w3.org/2000/svg"
 width="500.000000pt" height="500.000000pt" viewBox="0 0 500.000000 500.000000"
 preserveAspectRatio="xMidYMid meet">

<g transform="translate(0.000000,500.000000) scale(0.100000,-0.100000)"
fill="#000000" stroke="none">
<path d="M1280 3715 c-31 -37 26 -180 141 -355 117 -177 185 -223 275 -185 74
31 134 107 134 170 0 39 -27 84 -90 150 -184 193 -184 192 -162 153 12 -21 17
-38 12 -38 -5 0 -35 16 -66 36 -119 76 -216 103 -244 69z m126 -30 c61 -32
269 -179 292 -208 8 -9 -2 -12 -39 -13 -35 0 -57 -7 -77 -22 -15 -12 -37 -27
-49 -32 -25 -10 -26 -14 -24 -75 l2 -40 -21 25 c-46 55 -150 219 -179 280 -60
126 -32 151 95 85z"/>
</g>
</svg>
